<?xml version="1.0" encoding="utf-8"?>
<!-- Generator: Adobe Illustrator 25.2.0, SVG Export Plug-In . SVG Version: 6.00 Build 0)  -->
<svg version="1.1" id="Layer_1" xmlns="http://www.w3.org/2000/svg" xmlns:xlink="http://www.w3.org/1999/xlink" x="0px" y="0px"
	 viewBox="0 0 2239.4 550" style="enable-background:new 0 0 2239.4 550;" xml:space="preserve">
<style type="text/css">
	.st0{clip-path:url(#SVGID_2_);fill:#C75B12;}
	.st1{clip-path:url(#SVGID_4_);fill:#C75B12;}
</style>
<g>
	<defs>
		<rect id="SVGID_1_" x="-128.3" width="2500" height="550"/>
	</defs>
	<clipPath id="SVGID_2_">
		<use xlink:href="#SVGID_1_"  style="overflow:visible;"/>
	</clipPath>
	<path class="st0" d="M839.5,276.7c0,31.4-5.7,58.9-17.1,82.5c-11.5,23.6-27.9,41.8-49.3,54.6c-21.4,12.7-46.1,19.1-74.1,19.1
		c-27,0-51-6.2-72-18.6c-21-12.4-37.3-30-48.8-52.8c-11.5-22.8-17.3-48.6-17.3-77.6c0-31.1,5.8-58.5,17.5-82.2
		c11.6-23.7,28.4-41.9,50.1-54.5c21.8-12.7,47-19,75.6-19c26.2,0,49.6,6.2,70.4,18.7c20.7,12.5,36.8,30,48.1,52.6
		C833.9,222.1,839.5,247.8,839.5,276.7 M803.4,281.3c0-38.4-9-68.3-26.9-89.8c-18-21.5-43-32.3-75-32.3c-20.1,0-38.2,5.1-54.2,15.3
		c-16,10.2-28.3,24.7-37.1,43.5c-8.8,18.8-13.1,39.7-13.1,62.9c0,23.6,4.2,44.6,12.7,63c8.4,18.4,20.4,32.7,36,42.7
		c15.6,10.1,33.4,15.1,53.2,15.1c32.6,0,58.2-10.7,76.7-32.1C794.1,348.3,803.4,318.8,803.4,281.3 M987.7,145.9
		c-6.6-3.7-14-5.6-22.4-5.6c-23.6,0-35.3,14.9-35.3,44.6v32.5h49.3v28.5h-49.3v181.9h-33.7V245.9h-35.8v-28.5h35.8v-34.1
		c0-21.4,6.3-38.7,18.9-51.8c12.6-13.2,28.7-19.7,48.1-19.7c10.3,0,18.4,1.2,24.4,3.7L987.7,145.9L987.7,145.9L987.7,145.9z"/>
</g>
<g>
	<defs>
		<rect id="SVGID_3_" x="-128.3" width="2500" height="550"/>
	</defs>
	<clipPath id="SVGID_4_">
		<use xlink:href="#SVGID_3_"  style="overflow:visible;"/>
	</clipPath>
	<path class="st1" d="M412.2,76.6L297.4,43.5c0.3,8.2,1.4,16.3,5,23.8c2.8,5.8-5.9,10.9-8.6,5c-4.8-10.1-6-20.8-6.4-31.8l-21.5-6.2
		l-263,98.8l-0.7,0.1l0,295.3L92,393.4V153.2l173.9-41.6l0,353.2L2.4,428.5l263.5,97.3v0.1l146.3-40.5V485h0l0,0V76.6z"/>
	<path class="st1" d="M1143.8,120.2c-6.3,0-11.5,2.1-15.7,6.5c-4.2,4.3-6.3,9.4-6.3,15.3c0,6.6,2.1,11.9,6.4,15.9
		c4.2,4.1,9.5,6,15.6,6c6,0,11.2-2.1,15.6-6.3c4.4-4.2,6.6-9.4,6.6-15.7c0-6-2.1-11.2-6.4-15.4
		C1155.3,122.3,1150.1,120.2,1143.8,120.2z"/>
	<path class="st1" d="M1081.4,140.3c8.4,0,15.8,1.8,22.4,5.6l0-30.4c-6-2.5-14.2-3.7-24.4-3.7c-19.5,0-35.5,6.6-48.1,19.7
		c-12.6,13.1-18.9,30.4-18.9,51.8v34.1h-35.8v28.5h35.8v181.9h33.7V245.9h49.3v-28.5h-49.3v-32.5
		C1046.1,155.2,1057.9,140.3,1081.4,140.3z"/>
	<rect x="1126.5" y="217.3" class="st1" width="33.7" height="210.4"/>
	<path class="st1" d="M2209.3,272.2c-17.8-15.5-42.1-23.2-72.7-23.2l-27.1,1l6-86.5h107.1v-30.4h-136.2l-10.1,147.7
		c13.7-1.6,30.3-2.4,49.9-2.4c24.5,0,43.2,5.4,56.1,16.3c12.9,10.9,19.3,25.9,19.3,45.1c0,19.6-6.4,35.2-19.1,46.8
		c-12.7,11.6-29.5,17.5-50.3,17.5c-21,0-41.4-6.4-61.4-19.3v35.8c13.3,8.2,33.6,12.3,61,12.3c31.6,0,57-8.7,75.9-26.1
		c19-17.4,28.4-40.4,28.4-69.1h0C2236,309.6,2227.1,287.7,2209.3,272.2z"/>
	<path class="st1" d="M1224.6,243.9c-19.9,21.1-29.9,49.1-29.9,83.9c0,20.1,4.2,38.3,12.7,54.4c8.5,16.2,20.4,28.7,35.6,37.5
		c15.3,8.8,32.5,13.2,51.7,13.2c22.2,0,41.4-4.9,57.7-14.8l0,0l0-32.1c-16.2,12.1-33.4,18.1-51.8,18.1c-21.8,0-39.1-7.1-52.1-21.4
		c-13-14.3-19.4-33.6-19.4-58.2c0-24.7,6.8-44.8,20.5-60.3c13.6-15.5,31.3-23.3,53.1-23.3c17.7,0,34.4,5.5,50.1,16.4v-34.5
		c-14.1-7.1-30.3-10.7-48.7-10.7C1271.1,212.2,1244.6,222.8,1224.6,243.9z"/>
	<path class="st1" d="M1953.5,243.5c-31.2,0-53.6,13.9-67.2,41.7h-0.8c0-38.9,7.8-70,23.5-93.4c15.7-23.4,36.5-35,62.6-35
		c16.8,0,32.9,3.9,48.1,11.7v-31.9c-12.3-5.6-28.6-8.4-48.9-8.4c-23.8,0-44.9,7-63.1,21c-18.2,14-32.3,33.9-42.2,59.7
		c-9.9,25.8-14.9,55.6-14.9,89.3c0,42.5,8.4,75.6,25.2,99.3c16.8,23.7,39.9,35.5,69.4,35.5c17.5,0,33.4-4.2,47.5-12.5
		c14.1-8.3,25.2-20.1,33.2-35.3c8-15.2,12-32.1,12-50.7h0c0-27.3-7.7-49.2-23-65.8C1999.4,251.8,1979,243.5,1953.5,243.5z
		 M1987.5,385.9c-10.5,12.1-24.2,18.2-41,18.2c-17,0-31.1-6.9-42.2-20.9c-11.2-13.9-16.7-31.2-16.7-51.9c0-16.4,5.6-30.5,16.8-42
		c11.2-11.6,25.1-17.4,41.5-17.4c18.1,0,32.2,5.9,42.2,17.8c10.1,11.9,15.1,28.1,15.1,48.7C2003.2,358,1998,373.8,1987.5,385.9z"/>
	<path class="st1" d="M1472.9,212.2c-18.1,0-34.5,4.8-49.3,14.2c-14.8,9.5-26.4,22.8-34.8,40c-8.4,17.2-12.7,36.2-12.7,57
		c0,34.3,8.4,61.1,25.3,80.5c16.9,19.4,40.3,29.1,70.3,29.1c30.4,0,54.8-6.8,73.2-20.3v-31.5c-19.6,15.3-41.3,23-65.2,23
		c-21.2,0-37.8-6.3-49.8-18.8c-12-12.5-18.2-30.6-18.8-54.4h148.6l0,0v-17.7c0-31.9-7.6-56.8-22.9-74.5
		C1521.4,221.1,1500.1,212.2,1472.9,212.2z M1411.5,302.4c2.9-18.5,9.8-33.4,21-44.6c11.1-11.2,24.4-16.8,40.1-16.8
		c16.6,0,29.4,5.4,38.5,16.1c9.1,10.8,13.8,25.9,14.1,45.3L1411.5,302.4z"/>
	<path class="st1" d="M1746.6,274.1v-0.8c39.2-11.1,58.8-36,58.8-74.8c0-20.9-7.5-37.9-22.5-50.8c-15-13-34.7-19.4-59.1-19.4
		c-25.9,0-48.2,5.6-67,16.9v32.7c18.2-14,37.7-21,58.5-21c37,0,55.5,16.7,55.5,50.1c0,36.2-24.3,54.3-72.7,54.3h-23.2v28.6h24.4
		c54.8,0,82.2,19.3,82.2,57.7c0,17.4-6.1,31.2-18.4,41.4c-12.3,10.2-28.7,15.3-49.4,15.3c-25.6,0-48.3-7.8-68.2-23.4v36.2
		c16.6,10.7,38.9,16,67,16c30.9,0,56-8.1,75-24.3c19-16.2,28.6-37.6,28.6-64.2v0c0-19-6.4-34.9-19.1-47.7
		C1784.2,283.9,1767.4,276.4,1746.6,274.1z"/>
</g>
</svg>
