<svg xmlns="http://www.w3.org/2000/svg" viewBox="0 0 1952.63 351.38"><defs><style>.cls-1{fill:#00aaf2;}</style></defs><g id="Layer_2" data-name="Layer 2"><g id="Layer_1-2" data-name="Layer 1"><g id="Layer_2-2" data-name="Layer 2"><g id="Layer_1-2-2" data-name="Layer 1-2"><path id="path14" class="cls-1" d="M51.62,37.47c-.52-7.86-1-18.08-1-25.42h-.52c-1.57,6.82-4.72,14.94-7.34,22.8L32.49,63.15H26.73L17.56,35.37C14.94,28,12.84,19.91,10.74,12.58c-.52,6.81-.52,17-1,25.94L8.12,63.41H1.31l4.19-59h9.7L25.42,33.28c2.62,6.81,4.19,13.88,5.76,20.17h.53c1.57-5.76,3.66-12.84,6.28-20.17L48.74,4.45h9.69l3.67,59H53.72l-2.1-25.94Z"/><path id="path16" class="cls-1" d="M82,9.17a4.69,4.69,0,0,1-4.71,4.72h-.53a4.72,4.72,0,0,1,0-9.44C79.92,4.45,82,6.55,82,9.17Zm-8.38,54.5V21.75h7.86V63.67Z"/><path id="path18" class="cls-1" d="M123.94,61.84a31.4,31.4,0,0,1-12.32,2.62c-12.84,0-21.22-8.39-21.22-21.75-.52-12.31,8.38-22.27,20.7-22.8h2.1A25.42,25.42,0,0,1,123.94,22l-1.57,5.76c-2.62-1-5.77-2.09-9.17-1.57-9.7,0-14.94,6.82-14.94,16,0,10.22,6.29,16,14.94,16a18.78,18.78,0,0,0,9.17-2.1l1.57,5.77Z"/><path id="path20" class="cls-1" d="M132.59,34.33c0-4.72-.53-9.18-.53-12.84h6.81l.53,8.38h.52a12.58,12.58,0,0,1,11.79-9.17,3.17,3.17,0,0,1,2.1.52V28c-.52-.53-1.57-.53-2.62-.53-5.24,0-9.17,4.2-10.22,10.22,0,1.05-.52,2.1-.52,3.15V63.67h-7.34l-.52-29.34Z"/><path id="path22" class="cls-1" d="M199.14,42.19c.52,11.26-7.86,21.22-19.13,21.74h-1.57c-11.27,0-20.18-8.38-20.18-21.74,0-14.42,9.7-22.28,21.23-22.28C190,19.91,199.14,29.09,199.14,42.19Zm-33.54,0c0,8.38,4.19,16,12.84,16,8.39,0,12.84-7.86,12.84-16,0-7.34-3.14-16.51-12.84-16.51C168.22,26.2,165.6,34.85,165.6,42.19Z"/><path id="path24" class="cls-1" d="M207.53,55.55a17.4,17.4,0,0,0,10.21,3.14c5.24,0,7.87-2.62,7.87-6.28,0-3.15-2.1-5.25-7.87-7.87-7.33-2.62-11.26-6.81-11.26-12.31,0-6.81,5.24-12.32,14.41-12.32a25.93,25.93,0,0,1,10.74,2.62l-1.57,5.24a17.41,17.41,0,0,0-8.39-2.62,5.82,5.82,0,0,0-6.81,5.77c0,3.14,2.62,4.72,7.86,6.81C229.54,40.35,234,44,234,50.57c0,7.34-5.76,12.84-16,12.84a24.14,24.14,0,0,1-11.79-3.14l1.31-4.72Z"/><path id="path26" class="cls-1" d="M281.42,42.19c.52,11.26-7.86,21.22-19.13,21.74h-1.57c-11.27,0-20.18-8.38-20.18-21.74,0-14.42,9.7-22.28,21.23-22.28C272.51,19.91,281.42,29.09,281.42,42.19Zm-33.28,0c0,8.38,4.19,16,12.84,16s12.84-7.86,12.84-16c0-7.34-3.15-16.51-12.84-16.51S248.14,34.85,248.14,42.19Z"/><path id="path28" class="cls-1" d="M291.64,63.67V27h-5.77V21.22h5.77V19.13a19.74,19.74,0,0,1,4.71-14.94A14.47,14.47,0,0,1,306.57,0a26,26,0,0,1,6.29,1.05l-1.05,5.76a15.38,15.38,0,0,0-4.71-1c-6.29,0-7.87,5.77-7.87,12.32V20.7h10.22v5.76H299.23V62.62l-7.59,1.05Z"/><path id="path30" class="cls-1" d="M326.75,8.65V21H338v5.77H326.75V49.52c0,5.24,1.57,7.86,5.76,7.86a10.26,10.26,0,0,0,4.19-.52l.53,5.76c-2.1,1.05-4.19,1.05-6.81,1.05A12.88,12.88,0,0,1,322,60.53a16.92,16.92,0,0,1-2.62-11.27V25.94h-6.29V20.18h6.29V10Z"/><path id="path32" class="cls-1" d="M46.9,223.77,26.73,286.13H0L67.6,88H98l67.6,197.83H138.35l-21.22-62.36H46.9Zm65-19.65L92.76,147.26c-4.19-12.84-7.34-24.89-10.22-36.16H81.49a360.67,360.67,0,0,1-9.69,35.64L52.67,204.12Z"/><path id="path34" class="cls-1" d="M291.11,281.16a99.35,99.35,0,0,1-40.87,8.38c-42.45,0-70.75-29.35-70.75-72.32s30.39-75.46,76-75.46c12.31,0,24.36,2.09,35.63,7.33l-5.76,19.66c-9.17-4.72-19.65-6.82-30.4-6.82-32.49,0-50,24.37-50,53.72,0,33,21.22,53.19,49.52,53.19A72.39,72.39,0,0,0,285.87,262l5.24,19.12Z"/><path id="path36" class="cls-1" d="M356.62,103.5v40.88H393.3V163.5H356.62V240c0,17.55,4.72,27.77,19.13,27.77a72.13,72.13,0,0,0,14.93-1.57l1.05,19.13C387,288,378.89,289,368.41,289a36.7,36.7,0,0,1-27.77-10.75c-6.82-8.38-9.7-20.17-9.7-37.21V163.5H308.67V144.38h21.75V109.79l26.2-6.29Z"/><path id="path38" class="cls-1" d="M451.21,104.55a15.84,15.84,0,0,1-14.94,16h-1c-8.39,0-15.46-6.29-15.46-14.41v-1.05a15.16,15.16,0,0,1,14.93-16h1.05c8.65-1,15.46,6.29,15.46,15.46ZM422.65,286.4v-142h25.42V285.87H422.65Z"/><path id="path40" class="cls-1" d="M501.26,144.38,529,224.3c4.72,12.83,8.39,24.89,11.79,36.68h1c3.15-11.79,7.34-23.85,11.79-36.68l27.78-79.92h27.25L552.88,285.87H528L474.27,144.38Z"/><path id="path42" class="cls-1" d="M643.8,219.84c.52,35.11,22.8,49.52,48.48,49.52,18.6,0,30.39-3.14,39.3-7.33l4.19,18.6a112.49,112.49,0,0,1-47.42,9.17c-43.5,0-69.7-29.35-69.7-71.79,0-43,24.89-76.52,67.07-76.52,46.38,0,58.44,40.36,58.44,66.56a102.63,102.63,0,0,1-1,12.31H643.8Zm75.46-18.6c.53-16-6.81-41.4-35.63-41.4-25.94,0-37.73,23.84-39.83,41.4Z"/><path id="path44" class="cls-1" d="M839,91.19A379.6,379.6,0,0,1,893.77,87c36.69,0,62.89,8.39,79.92,24.9,17.56,16,27.78,39.3,27.78,70.74,0,32.49-10.22,58.43-28.83,77s-49,28.82-87.25,28.82c-15.46,0-31.44-.52-46.9-2.62Zm26.2,175a206.63,206.63,0,0,0,25.42,1.57c54.76,0,84.63-30.39,84.63-84.11.53-46.9-25.94-76-79.91-76a198.69,198.69,0,0,0-30.4,2.62Z"/><path id="path46" class="cls-1" d="M1063.57,104.55a15.84,15.84,0,0,1-14.94,16h-1.05c-8.38,0-15.46-6.29-15.46-14.41v-1.05a15.17,15.17,0,0,1,14.94-16h1c8.12-1,15.46,6.29,15.46,15.46ZM1034.48,286.4v-142h25.42V285.87h-25.42Z"/><path id="path48" class="cls-1" d="M1102.87,188.66c0-16.51-.52-30.92-1-44.28h22.8l1.05,27.77h1c6.81-19.13,22.79-30.92,39.82-30.92a27.46,27.46,0,0,1,6.82.53v24.37a40.32,40.32,0,0,0-8.39-1c-18.6,0-30.92,13.88-34.59,33-1,3.67-1,7.86-1,11.79v76h-25.42l-1.05-97.21Z"/><path id="path50" class="cls-1" d="M1210.56,219.84c.53,35.11,22.8,49.52,48.48,49.52,18.6,0,30.39-3.14,39.3-7.33l4.2,18.6a112.53,112.53,0,0,1-47.43,9.17c-43.5,0-69.7-29.35-69.7-71.79,0-43,24.89-76.52,67.08-76.52,46.38,0,58.43,40.36,58.43,66.56a100.62,100.62,0,0,1-1.05,12.31h-99.31v-.52Zm75.47-18.6c.52-16-6.81-41.4-35.64-41.4-25.94,0-37.73,23.84-39.83,41.4Z"/><path id="path52" class="cls-1" d="M1444,281.16a99.4,99.4,0,0,1-40.88,8.38c-42.44,0-70.74-29.35-70.74-72.32s30.39-75.46,76-75.46c12.31,0,24.36,2.09,35.63,7.33l-5.76,19.66c-9.17-4.72-19.66-6.82-30.4-6.82-32.49,0-50,24.37-50,53.72,0,33,21.23,53.19,49.53,53.19a72.39,72.39,0,0,0,31.44-6.81l5.24,19.12Z"/><path id="path54" class="cls-1" d="M1509.54,103.5v40.88h36.68V163.5h-36.68V240c0,17.55,4.71,27.77,19.13,27.77a72.21,72.21,0,0,0,14.93-1.57l1.05,19.13c-4.72,2.62-12.84,3.67-23.32,3.67a36.74,36.74,0,0,1-27.78-10.75c-6.81-8.38-9.69-20.17-9.69-37.21V163.5h-21.75V144.38h21.75V109.79Z"/><path id="path56" class="cls-1" d="M1702.13,215.12c0,52.15-38.26,74.42-71.27,74.42-37.21,0-67.61-27.78-67.61-73.89,0-47.43,32.49-74.42,70.75-74.42C1673.83,141.23,1702.13,169.53,1702.13,215.12Zm-112.41.53c0,28.82,14.41,54.24,43,54.24,28.3,0,43.5-25.42,43.5-54.77,0-24.89-11.79-55.28-43.5-55.28S1589.72,190.23,1589.72,215.65Z"/><path id="path58" class="cls-1" d="M1734.62,188.66c0-16.51-.53-30.92-1-44.28h22.8l1.05,27.77h1c6.82-19.13,22.8-30.92,39.83-30.92a27.34,27.34,0,0,1,6.81.53v24.37a40.31,40.31,0,0,0-8.38-1c-18.6,0-30.92,13.88-34.59,33-1.05,3.67-1.05,7.86-1.05,11.79v76h-25.41l-1.05-97.21Z"/><path id="path60" class="cls-1" d="M1847.29,144.38,1878.21,228c3.14,9.17,6.81,20.18,9.17,29.35h.52c2.63-8.38,5.25-19.13,9.18-29.35l28.29-83.58h27.26l-38.78,101.14c-18.61,48.47-30.92,73.89-48.48,89.35a79,79,0,0,1-31.44,16.51l-6.29-21.75a61.66,61.66,0,0,0,22.79-12.84A77.22,77.22,0,0,0,1871.66,288c1-2.1,2.1-4.19,2.1-6.29,0-2.62-1-4.72-2.1-6.81l-52.14-130.23h27.77Z"/></g></g></g></g></svg>