<?xml version="1.0" encoding="utf-8"?>
<!-- Generator: Adobe Illustrator 26.0.3, SVG Export Plug-In . SVG Version: 6.00 Build 0)  -->
<svg version="1.0" id="katman_1" xmlns="http://www.w3.org/2000/svg" xmlns:xlink="http://www.w3.org/1999/xlink" x="0px" y="0px"
	 viewBox="0 0 800 600" style="enable-background:new 0 0 800 600;" xml:space="preserve">
<style type="text/css">
	.st0{fill:#165C7D;}
</style>
<g id="Layer_2">
	<g id="logos">
		<path id="logmein-logo" class="st0" d="M136.1,336c-0.5-0.5-1.3-0.9-2-0.9c-1.1-0.3-2.2-0.4-3.3-0.4c-1.2,0-33.2,0-35.5,0
			c-1.8,0.2-3.5-0.5-4.5-2c-0.2-0.6-0.3-1.2-0.4-1.8c0-0.7,0-1.5,0-2.2V327c0-1,0-1.2,0-2.1c0-0.9,0-1.9,0-2.8v-77.4
			c0.1-1.1-0.2-2.1-0.8-3c-0.6-0.8-1.5-1.2-2.5-1.2c-1.1,0-17.8,0-18.6,0c-1.2,0.1-2.2,0.6-2.9,1.6c-0.4,0.7-0.6,1.5-0.6,2.4
			c0,1,0,106,0,107c0,0.8,0.2,1.6,0.6,2.4c0.6,0.9,1.5,1.4,2.5,1.5c1.2,0,63.5,0.3,64.5,0.3c0.9,0.1,1.7-0.2,2.5-0.6
			c0.7-0.4,1.3-1,1.6-1.8c0.3-0.6,0.3-1.3,0.3-1.9c0-0.7,0-12,0-12.9C136.9,337.5,136.6,336.7,136.1,336z M180.6,341
			c-9,0-19.9-7.3-19.9-26.8c0-19.6,10.4-27,21.5-27s19.6,9.6,19.6,27C201.9,336.4,189.3,341,180.6,341z M181.4,270.1h-0.6
			c-35.1,0-42.8,29.4-42.8,43l0,0c-0.2,7,1,14,3.8,20.4c6.7,15.7,22.5,25.6,39.6,24.7c22.4,0,43.4-13.9,43.4-44.4v-0.3
			c0.8-23.1-17.2-42.4-40.2-43.3c-1.1,0-2.1,0-3.2,0V270.1z M272.6,336.3c-10.9,0-18.8-8.6-18.8-26.5c0-15,8.9-22.6,18.6-22.6
			c8.6,0,19.9,7.5,19.9,22.8C292.3,326.7,284.2,336.3,272.6,336.3z M312.6,273.3c-0.7-0.5-1.5-0.8-2.3-0.9c-0.9,0-13.4,0-14.3,0
			c-0.8,0-1.7,0.3-2.4,0.7c-0.4,0.4-0.7,0.9-0.9,1.5c0,0.3,0,0.6,0,1.1c-0.3,1.9-1,3.5-2.4,3.7c-0.8,0-1.6-0.3-2.1-0.9
			c-5.4-5.8-13.1-8.9-21.1-8.6c-28.4,0-35.2,26.9-35.8,36.7c0,0,0,2.7-0.2,4.1c0,29.8,16.8,42.7,36.1,42.7c7.5,0,14.8-2.7,20.5-7.6
			l0.7-0.5c0.3-0.3,0.7-0.5,1.1-0.6c0.6-0.3,1.3-0.3,2,0c1.1,0.6,1.3,2,1.1,4c0,0-0.6,7.7-0.9,8.6c-1.1,8.1-7.7,14.3-15.9,14.8
			c-7.9,1.5-15.7-2.4-19.3-9.6c-0.8-1-1.9-1.7-3.2-1.7c-0.6,0-14.7,0-15.7,0c-1,0.2-1.8,0.7-2.5,1.4c-0.6,0.9-0.8,2.1-0.4,3.1
			c2.7,11,14.7,22.1,36.6,22.1h0.4c33.2,0,42.2-19,42.2-38.7c0,0,0-71.8,0-73.1C313.9,274.7,313.4,273.9,312.6,273.3z M512.4,303.8
			c-0.8,1-2,1.5-3.3,1.4h-27.1c-1.2,0.1-2.5-0.2-3.6-0.8c-0.5-0.4-0.9-1-1-1.6c-0.2-0.7-0.2-1.4,0-2c2.2-8.5,10.1-14.3,18.8-13.9
			c7.7,0.2,14.4,5.4,16.5,12.9C513.3,301,513.2,302.6,512.4,303.8z M494.8,270.1c-29.8,0.9-41.3,26.8-41.3,43.9
			c0,10.2,4,43.9,43,43.9c28.3,0,36-20.8,37-23.5c0.1-0.7,0.1-1.4,0-2c0-0.3,0-0.5,0-0.8c-0.1-0.9-0.8-1.6-1.7-1.7h-13.6
			c-1.4,0.1-2.7,0.8-3.5,1.9l-1.2,1.4c-3.8,4.9-9.7,7.8-15.9,7.7c-15.7,0-20.2-10.5-20.8-15.8c0-0.4,0-0.8,0-1.2
			c-0.2-1.7,0.8-3.4,2.5-4c0.6-0.2,1.2-0.3,1.8-0.3c0.7,0,47.5,0,48.8,0c1.1,0,2.3-0.1,3.4-0.3c0.8-0.1,1.7-0.4,2.4-0.9
			c0.6-0.5,1-1.3,1.1-2.1c0.2-1.4,0.3-2.7,0.2-4.1C537,295.8,525.5,269.2,494.8,270.1z M720.6,217c0-0.1,0-0.2,0-0.3v-0.4l0,0l0,0
			c0.1-0.1,0.2-0.2,0.3-0.3h2.5c0.3,0,0.6,0.1,0.9,0.3c0.3,0.1,0.5,0.3,0.6,0.6c0,0.2,0,0.3,0,0.5c0,0.2,0,0.4,0,0.6
			c0,0.2-0.1,0.5-0.3,0.6c-0.1,0.2-0.3,0.3-0.5,0.4l-0.6,0.2h-0.8h-1.6c-0.2,0-0.4-0.1-0.6-0.3c-0.1-0.2-0.1-0.5,0-0.8L720.6,217
			L720.6,217z M719,224.6c0,0,0,0,0,0.3l0,0h0.3h0.4h0.4h0.3c0-0.2,0-0.3,0-0.5c0-0.2,0-0.3,0-0.5v-2c0-0.2,0-0.4,0-0.6
			c0-0.2,0-0.3,0-0.5c0.1,0,0.1,0,0.2,0h1h0.3c0.2,0.1,0.3,0.3,0.5,0.5c0.1,0.2,0.2,0.4,0.3,0.6l1.5,2.5c0.1,0.1,0.2,0.3,0.3,0.4
			c0.1,0.2,0.2,0.3,0.3,0.4h0.2l0,0h0.8c0.1-0.1,0.1-0.3,0-0.5c0,0,0,0,0-0.3l-0.3-0.3l-1.5-2.3c0-0.1-0.1-0.2-0.2-0.3
			c0,0,0,0,0-0.3l0,0l0,0c0,0,0-0.3,0-0.3c0.1,0,0.2,0,0.3,0c0.1,0,0.2,0,0.3,0h0.3c0.3-0.2,0.5-0.4,0.7-0.6
			c0.2-0.2,0.4-0.5,0.5-0.9c0-0.2,0-0.4,0-0.6c0-0.2,0-0.4,0-0.6v-1.5c-0.1-0.4-0.3-0.8-0.6-1.2c-0.1-0.2-0.3-0.3-0.5-0.4
			c-0.5-0.3-1-0.5-1.5-0.6h-2h-2.6l0,0l0,0c-0.1,0-0.2,0-0.3,0c-0.1,0.1-0.1,0.3,0,0.4v9c0,0.1,0,0.2,0,0.3L719,224.6z M722.4,210.9
			c4.9,0,8.9,4,8.9,8.9s-4,8.9-8.9,8.9c-4.9,0-8.9-4-8.9-8.9C713.5,214.9,717.5,210.9,722.4,210.9L722.4,210.9z M722.4,230.5
			c5.9,0,10.7-4.8,10.7-10.7c0-5.9-4.8-10.7-10.7-10.7s-10.7,4.8-10.7,10.7c0,0,0,0,0,0C711.8,225.7,716.5,230.5,722.4,230.5z
			 M700.4,353.1c0.2,1.6-0.8,3.1-2.3,3.6c-5.7,0.3-11.5,0.3-17.2,0c-0.9-0.1-1.8-0.6-2.4-1.4c-0.5-0.7-0.7-1.6-0.7-2.5
			c0-1,0-38.7,0-38.7c0-4,0-7.7-0.5-11.1c0-7.7-6.2-14-13.9-14.1c-0.3,0-0.6,0-0.9,0c-8.2-0.2-15.3,5.9-16.4,14.1
			c-0.7,5.3-1,10.7-1,16.1v33.1c0,0.8-0.1,1.6-0.5,2.4c-0.5,1.1-1.4,1.9-2.6,2.1c-5.3,0.3-10.7,0.3-16,0c-1,0-1.9-0.4-2.6-1.1
			c-0.9-1.3-1.2-2.8-1.1-4.3c0-1.8,0-73.4,0-74.4c0-0.9,0.4-1.7,0.9-2.4c0.6-0.9,2.1-1.3,4.6-1.3h9.2c2.6,0,5.8,0,6.2,2.5
			c0,0.6,0.7,5.6,2.8,5.6c0.6,0,1.2-0.3,1.6-0.8c1.8-1.9,3.7-3.6,5.8-5c10-5.2,21.8-5.8,32.3-1.5c4.2,1.9,7.8,5.1,10.2,9.1
			c3,5.8,4.5,12.2,4.3,18.7c0,1.6,0,49.4,0,51.3L700.4,353.1z M605.5,355.3c-0.8,1.1-2,1.7-3.3,1.8c-1.5,0-16.5,0-17.6,0
			c-0.9-0.1-1.8-0.4-2.5-1c-0.6-0.7-0.9-1.5-1-2.4c0-1.1,0-2.3,0-3.4c0,0,0-100.2,0-102.3c-0.1-1.5,0.1-3,0.7-4.3
			c0.7-1,1.8-1.6,3-1.7H603c0.9,0,1.8,0.4,2.4,1.2c0.6,0.9,0.9,1.9,0.9,2.9c0,1.2,0,103.8,0,105.5
			C606.4,352.9,606.1,354.1,605.5,355.3z M638.5,203.4c-53.1,0-96.2,43.1-96.2,96.2s43.1,96.2,96.2,96.2c53.1,0,96.2-43.1,96.2-96.2
			c0,0,0,0,0,0C734.7,246.5,691.6,203.4,638.5,203.4z M443.3,240.4h-27.9c-0.9,0-1.8,0.2-2.5,0.8c-0.8,0.5-1.4,1.2-1.8,2.1l-1,2.6
			c-0.6,1.8-22.2,68.8-22.4,68.8c-0.6,1-1.2,1.6-1.8,1.6s-2.1-2.3-3.1-5.6c-0.6-1.7-22.5-65.9-22.8-66.9c-0.3-0.9-0.9-1.7-1.6-2.3
			c-1.3-0.9-2.8-1.3-4.3-1.2c-1.8,0-27,0-27.2,0c-0.2-0.1-0.4-0.1-0.6,0c-1,0.2-2,0.7-2.6,1.6c-0.3,0.6-0.4,1.2-0.5,1.9
			c-0.1,0.9-0.2,1.7-0.2,2.6v102.4c-0.1,1.2-0.1,2.3,0,3.5c0,1,0.4,1.9,1.1,2.5c0.7,0.6,1.6,0.9,2.5,0.9h14.2c0.8,0,1.7,0,2.5-0.3
			c1-0.1,1.9-0.6,2.4-1.5c0.5-0.6,0.7-1.3,0.7-2.1v-68c0-0.7,0.4-2,1.3-1.9c0.3,0.1,0.5,0.2,0.8,0.3l0.6,0.6
			c0.7,1.2,1.3,2.4,1.8,3.7c0,0.2,22.9,64.8,23.2,65.5c0.9,2,2.2,3.6,4.3,3.6h14.4c1.5-0.1,2.7-1.2,3-2.6
			c4.6-11.6,20-59.4,24.1-69.2c0.3-0.8,0.8-1.6,1.4-2.4c0,0,1-0.6,1.3-0.6c0.3,0.1,0.8,0.3,0.9,1.2c0.1,1.1,0.1,2.2,0,3.4
			c0,1,0,63.7,0,63.7v2.8c0,0.8,0.2,1.5,0.6,2.1c0.9,1.1,2.3,1.8,3.7,1.6h15.4c0.9,0,1.8-0.3,2.5-0.9c0.7-0.6,1.1-1.6,1-2.5
			c0-1.1,0-105.8,0-107.5c0.2-1.5-0.5-2.9-1.8-3.7C444.4,240.8,443.8,240.6,443.3,240.4z"/>
	</g>
</g>
</svg>
