<svg xmlns="http://www.w3.org/2000/svg" viewBox="0 0 2051.02 459.42"><defs><style>.cls-1{fill:#0078d6;}</style></defs><g id="Layer_2" data-name="Layer 2"><g id="Layer_1-2" data-name="Layer 1"><path class="cls-1" d="M931.53,95.9l-75.15,266H819.85L765.11,167.51a122.1,122.1,0,0,1-4.26-27.09h-.74a137.09,137.09,0,0,1-4.82,26.72L700.2,361.92H664L586.1,95.9h34.32L677,300a134.27,134.27,0,0,1,4.46,26.72h.93q.93-9.84,5.74-26.72L746.94,95.9h29.87L833.2,301.45a151.26,151.26,0,0,1,4.45,24.86h.74q.74-9.65,5-25.6l54.36-204.8h33.77Zm41.9,27.82a19.28,19.28,0,0,1-13.92-5.57,18.78,18.78,0,0,1-5.74-14.1,19.47,19.47,0,0,1,19.66-19.86,19.71,19.71,0,0,1,14.19,5.66,19.83,19.83,0,0,1,0,28.11A19.46,19.46,0,0,1,973.43,123.72Zm14.84,238.2H957.84V172h30.43Zm204.46,0h-30.42V253.59q0-60.48-44.15-60.47-22.82,0-37.76,17.16t-14.93,43.31V361.92H1035V172h30.43v31.54h.74q21.51-36,62.33-36,31.15,0,47.67,20.13t16.51,58.15V361.92h0Zm216.44,0h-30.43V329.64H1378q-21.15,36.74-65.3,36.74-35.81,0-57.23-25.52T1234,271.39q0-47.13,23.75-75.5t63.26-28.38q39.14,0,57,30.79h.74V80.68h30.43ZM1378.75,276V248q0-23-15.21-39t-38.59-16q-27.83,0-43.78,20.41t-16,56.39q0,32.85,15.31,51.85t41.09,19q25.41,0,41.28-18.36T1378.75,276Zm163.41,90.34q-42.12,0-67.24-26.61t-25.14-70.59q0-47.87,26.16-74.76t70.68-26.92q42.47,0,66.32,26.17t23.83,72.53q0,45.46-25.69,72.82T1542.16,366.37Zm2.23-173.27q-29.33,0-46.38,19.94t-17.06,55q0,33.76,17.26,53.24t46.19,19.47q29.5,0,45.36-19.11t15.86-54.35q0-35.64-15.86-54.92t-45.37-19.28ZM1911,172l-57,190h-31.55l-39.13-136a87.14,87.14,0,0,1-3-17.62h-.74a83.29,83.29,0,0,1-3.9,17.26l-42.47,136.35h-30.44L1645.3,172h31.91l39.31,142.83a87,87,0,0,1,2.6,17.06h1.49a79.5,79.5,0,0,1,3.34-17.43L1767.73,172h27.82l39.33,143.21a104.26,104.26,0,0,1,2.79,17.07h1.49a78.69,78.69,0,0,1,3.14-17.07L1880.89,172Zm14.1,183.09V322.4q24.85,18.38,54.72,18.37,40.07,0,40.06-26.72a23.36,23.36,0,0,0-3.41-12.9,34.36,34.36,0,0,0-9.28-9.36,71.44,71.44,0,0,0-13.72-7.33q-8.45-3.46-17-6.77a217,217,0,0,1-22.17-10.12,66.89,66.89,0,0,1-16-11.51,42.84,42.84,0,0,1-9.65-14.57,51.51,51.51,0,0,1-3.24-19.1,45.48,45.48,0,0,1,6.11-23.65,54.48,54.48,0,0,1,16.32-17.26,76.16,76.16,0,0,1,23.3-10.49,102.82,102.82,0,0,1,27-3.51q24.67,0,44.16,8.53V206.8q-21-13.73-48.24-13.73a55.88,55.88,0,0,0-15.39,2,37.31,37.31,0,0,0-11.77,5.46,25.51,25.51,0,0,0-7.61,8.44,22.25,22.25,0,0,0-2.69,10.86,26,26,0,0,0,2.69,12.43,27.6,27.6,0,0,0,7.88,8.91,61.13,61.13,0,0,0,12.62,7c5,2.11,10.58,4.4,16.9,6.87A245.19,245.19,0,0,1,2019.3,265a77.18,77.18,0,0,1,17.06,11.51,45.23,45.23,0,0,1,10.86,14.74q3.79,8.37,3.8,19.85c0,9.41-2.05,17.57-6.21,24.49a53,53,0,0,1-16.6,17.25A76.07,76.07,0,0,1,2004.28,363a117.79,117.79,0,0,1-28.38,3.34q-29.36,0-50.85-11.29ZM200.84,219.48H453V0L200.84,36.79Zm-17.77,0V39.37L0,66.07V219.48Zm0,17.76H0V392.6l183.07,27Zm17.77,0v185L453,459.42V237.24Z"/></g></g></svg>