<svg xmlns="http://www.w3.org/2000/svg" xmlns:xlink="http://www.w3.org/1999/xlink" viewBox="0 0 1555.25 2000"><defs><style>.cls-1,.cls-2,.cls-3,.cls-4,.cls-5,.cls-6{fill-rule:evenodd;}.cls-1{fill:url(#GradientFill_2);}.cls-2{fill:#d1d3d4;}.cls-3{fill:url(#GradientFill_3);}.cls-4{fill:#8ed8f8;}.cls-5,.cls-7{fill:#fff;}.cls-6{fill:#00aeef;}</style><linearGradient id="GradientFill_2" x1="2216.95" y1="1635.9" x2="1289.33" y2="995.07" gradientTransform="translate(2001.26 2000) rotate(180)" gradientUnits="userSpaceOnUse"><stop offset="0" stop-color="#00b5f1"/><stop offset="1" stop-color="#0052a4"/></linearGradient><linearGradient id="GradientFill_3" x1="631.29" y1="405.74" x2="1545.47" y2="1794.93" gradientTransform="translate(2001.26 2000) rotate(180)" gradientUnits="userSpaceOnUse"><stop offset="0" stop-color="#00aeef"/><stop offset="1" stop-color="#006ab6"/></linearGradient></defs><g id="Layer_2" data-name="Layer 2"><g id="Layer_1-2" data-name="Layer 1"><path class="cls-1" d="M699.5,2000c140.55-220.35-14.44-478.64-114.63-733.89C451,924.89,429.09,523.44,1409.57,0H0V2000Z"/><path class="cls-2" d="M829.31,1087.71C761,999.23,674.21,907.1,608.41,813c-71.28-101.94-117.87-205.07-90-306.68,26.69-97.23,133.06-184.92,282.44-269.82C940.44,157.19,1117.35,80.76,1302.41,0h10.13c-188.34,80.76-368,157.07-510.17,236.71-151.55,84.91-259.73,172.63-288.54,270-30,101.93,14.69,205.57,83.43,308,63.3,94.35,146.69,187.1,210.32,275.92,54.44,75.82,107,151.12,138.8,221.6,29.84,66.06,41.92,128.39,20.56,184-19.53-7.69-51.18-12.44-51.18-12.44,49.8,27.35,59.83,64,59.83,64,30.43-35,96.62-54.74,96.62-54.74-13.55.68-52.8,6.1-52.8,6.1,17.83-57.61.88-120.71-34.12-187.33C947.88,1240.64,889.05,1164.9,829.31,1087.71Z"/><path class="cls-3" d="M579.28,1282.49c-65.59-98.4-142.79-200.44-193.22-302.28-53.85-108.68-76.91-215.7-21-315,66.52-119.14,220.84-227.68,415.86-333,205.58-111,455-217.84,696.75-330.29L1483.19,0H1056.92C807.66,95.15,555.48,186.92,345.64,283.11,206.52,346.88,86.7,412.1,0,481.06V996.73c74.43,87.88,166.2,175.53,247.18,260.28,85.46,89.21,171.27,175.18,238.72,257.61,63.39,77.46,110.79,152.48,126.45,224.24,19.86,92-31.37,178.83-137.74,261.14H679.52c89.69-79.15,138-162,133.59-249.09-3.72-70.56-32.57-143.81-74-219.12C695.19,1451.83,636.78,1368.56,579.28,1282.49Z"/><path class="cls-4" d="M0,934c51.16,72.18,107,135.63,159.34,192.92,89.73,98.16,171.76,180.59,203.73,256.47,25.45,60.4,49.36,130.46,49.72,195,.33,61.18-20.14,117.77-79.84,159.23-9.75-6.91-30.33-13.3-30.33-13.3,19.44,23.65,2.54,50,2.54,50,45.89-21.51,107.75-29,107.75-29-10.43-.77-43.08-.69-43.08-.69,65.79-49.37,89.47-114.57,94.57-177.7,8.06-99.58-67.68-198.86-155.17-297-62.33-69.91-143.82-148-220.58-240A1354.61,1354.61,0,0,1,0,912Z"/><path class="cls-5" d="M617.28,1285.49c-64.25-98.16-140-199.86-189.07-301.7-52.24-108.31-73.72-215-16.76-314.13,68.09-118.81,223.32-226.78,419.12-331.93,206.09-110.68,456.77-217.1,699.17-329.09,8.61-3,17.11-5.8,25.51-8.64h-88.89c-116.19,45.32-233,90.07-344.81,134.68C998,184,878.7,234.53,770.86,285.68,556.63,411.32,387.53,537.51,329.41,674c-43,101.06-7.65,207.51,58.54,314.93,62.05,100.66,150.91,200.55,227.68,297.49,4.27,5.56,8.68,11.15,13.14,16.5-3.83-5.73-7.81-11.71-11.49-17.42ZM499.21,2000c4.39-17,7.87-51.89-23.6-83.37,0,0,41,10.88,61.13,23.73,66.32-54.22,95.14-119.33,100.9-186.14,5.73-66.25-10-135.32-37.45-206.91-28.89-75.37-71.22-154.5-114.9-236.11,54.46,81.67,107.68,160.51,146.88,236.22,37.14,71.74,62.35,140.94,65.38,208,3.17,71.16-22.87,138.09-89.37,196.48,0,0,61.31-2,81.21-1.06,0,0-95.14,14.45-172.16,49.14Z"/><path class="cls-5" d="M710.85,2000c76.65-89.37,93.94-180.72,29.54-272.26-41.15-58.5-106.53-117-184.26-176.31-81.76-62.36-177.37-125.83-273.63-190.74C189.35,1297.63,87.55,1233.44,0,1169.11v4.31c85.62,63.33,184.45,126.35,274.42,188.33,94.39,65.19,188,128.47,267.26,190.93,75.47,59.49,137.88,118,176,176.48C776.86,1820.22,755,1911,674.89,2000ZM0,657.84q18.67-11.08,38.31-22.11c152.91-86.08,346.41-172.1,502-269.47C742.83,239.17,795.5,114.44,757,0h16c35.94,113.78-18.94,237.86-223,364.75C392.1,462.51,196.79,548.3,41.5,635Q20.2,646.87,0,658.75Z"/><path class="cls-6" d="M676.09,2000c78.27-83.5,104.45-168.32,55.63-253.73-31.77-55.82-86.47-111.89-154.66-168.48-71.38-59.24-158.19-119.32-249.1-180.44C222.89,1322.9,100.7,1247.65,0,1172.24v5.18c98.52,74.27,217.5,148.4,321.64,221.14,87.8,61.77,172.58,121.8,242.64,180.83,67,56.47,120.27,112.52,149.89,168.24,45.42,84.88,15.46,169.23-65.61,252.37ZM0,682.09c5.72-3.52,11.49-7,17.37-10.56C163.21,584.09,357.42,496.07,527,397.74,767.81,257.89,835.41,122.51,797.43,0h11.92C845.58,122.08,776.46,257.07,535,396.29,363.91,495,167.72,583,20.12,670.72Q9.89,676.8,0,682.87Z"/><path class="cls-4" d="M613.72,1361.3c-94-71.06-204.06-143-293-215.39C227,1069.63,156.41,992.74,152.92,916.57,148.85,828,251.94,747.28,397.74,667c152.69-84.11,351.8-168.55,526.59-262.92C1187.06,261.45,1252.47,123,1204.41,0H1239c42,121.93-28.53,258.91-292.91,399.32-179.85,95.38-384.21,181-541.62,265.87-150.19,81-257.07,162-255.28,251.64,1.55,76.81,70.39,154.05,161.89,230.93,86.72,72.87,193.62,145.13,283.25,216.7,72.4,57.76,140.93,114.39,194.84,170.21,51.47,53.31,89.71,106,104.66,158.36,18.66,64.08-1.91,143.39-63.49,192.48-13.16-8.16-40.23-15.3-40.23-15.3,28.17,28.77,11,63.12,11,63.12C855.67,1904,933,1891.68,933,1891.68c-13.3-.51-54.62,1.27-54.62,1.27,88.94-77.23,92.4-156.55,42.95-240.37C868.08,1562.4,752.43,1466.36,613.72,1361.3Z"/><path class="cls-5" d="M0,0V58.72Q12.6,29.69,27.08,0ZM0,779.88C67.92,873.62,152.55,962,247.45,1033.6c0,0-32.61-1.89-42.84-1.18,0,0,66.21,13,123.76,44,0,0-31.27-36.56-25.1-67.62,0,0-17.11,7.62-22.77,16.78C155.09,936,61.17,817.55,0,695.89Z"/><path class="cls-5" d="M302.05,1311.74C198.18,1210.46,61.78,1104.15,0,1001.09v11.5c63,101,193.11,204.93,288.8,304.13,127.76,132.43,233.9,274.4,205.48,380.66-14.48-5.72-37.26-9.51-37.26-9.51,37.37,20.5,47.19,47.82,47.19,47.82,19.06-25.44,64.16-39.44,64.16-39.44-9.6.6-36.82,4-36.82,4,21.79-117-86.74-249.21-229.5-388.48ZM0,809.59c65.56-88.48,217.06-165.42,392.73-241.32C597,480.05,833.62,393.81,1012.6,291.56c170.25-96.77,228.47-197.13,218-291.56h10.65c-5,87.86-68.27,183.6-208,287.59C827.29,379.45,585.24,467.27,382,559.67,210.2,637.73,67.11,718.06,0,806.33Z"/><path class="cls-7" d="M332.68,803.79Q221.89,591,98.87,355.75,50.34,262.77,0,166.1V153q54,103.61,105.86,203Q228.32,590.62,339,803.82C420,960,496.4,1105.14,566.38,1236c63.83,119.39,122.91,228.73,176.47,325.58,0,0,14-3.88,19.29-4.94,0,0-19.45,11.69-18.17,29.22,0,0-18.49-16.94-49-27.59,0,0,14.63,1.08,25.41,3.72-46.07-97.2-101.37-206.55-163-326.18-67.44-130.9-143.56-276.13-224.71-432ZM11.27,617.37c-4.37-26.33,14.79-43,14.79-43-5.8,1.26-20.32,6.48-20.32,6.48C3.85,577.27,1.93,573.62,0,570v36.36A153.11,153.11,0,0,1,11.27,617.37Z"/><path class="cls-5" d="M0,980.55c2.32,2.73,2.67,5.57.51,7.94-.16.2-.33.38-.51.58Z"/><path class="cls-5" d="M397.7,1170.28c-6.35-2.7-6.65-6.09-1-7.87,5.57-2.43,14.48-1.83,20.67.85,5.71,2.41,6.08,6.22.73,8.24C412.57,1173.74,403.35,1172.88,397.7,1170.28Z"/><path class="cls-5" d="M441.27,1819.46c5.82,1.36,8.63,4,5.72,5.73s-10.34,1.68-16.3.51c-6.08-1.39-8.42-3.81-5.24-5.48C427.87,1818.08,435.17,1818.08,441.27,1819.46Z"/><path class="cls-5" d="M329,1468.72c3.54,5.11-3.23,9.63-16.21,9.24-12.74.28-26.75-4.17-30.82-9.53s3.07-9.44,15.86-9.5C310.69,1459.3,324.63,1463.54,329,1468.72Z"/><path class="cls-5" d="M524.27,1634.34c8.08,1.4,13.32,4.24,12.9,7.12-1.08,2.39-7.84,4.2-15.61,2.86s-13.28-4.44-12-6.64C510,1634.6,517,1633.42,524.27,1634.34Z"/><path class="cls-5" d="M140,1615.21c11.06,3.53,15.05,9.52,7.85,12.83-6.63,3.58-21.44,3.41-33.61-.83-10.9-3.72-15-9.72-7.42-12.79C113.35,1611.24,128.28,1611.44,140,1615.21Z"/><path class="cls-5" d="M430.67,1867.13c6.11,1.38,8.51,3.79,5.5,5.49-2.67,2.14-9.83,2.38-16,.79-6.09-1.36-8.87-4-5.88-5.7S424.71,1865.78,430.67,1867.13Z"/><path class="cls-5" d="M280.81,1389.38c.16,1.91-3.72,3.9-10,3.18-6.28-.49-12-3.28-12.2-5.2-.8-2.17,4.17-3.66,10.15-3.16S280.06,1386.79,280.81,1389.38Z"/><path class="cls-5" d="M481.79,1905.4c3.26,1.6,2,3.2-2.38,3.79-4,.63-9.9-.09-12.91-1.7s-1.9-3.2,2.48-3.8C473.21,1903.09,478.78,1903.79,481.79,1905.4Z"/></g></g></svg>